<svg xmlns="http://www.w3.org/2000/svg" width="210" height="64" viewBox="0 0 210 64">
  <g fill="none" fill-rule="evenodd">
    <path fill="#2F2D3A" d="M30.4537178,20.4897668 C36.8831422,26.7489954 45.6053635,25.216227 45.8279534,25.1758964 L45.8323014,25.1751006 L45.8480428,25.2076378 C46.0321115,25.5917361 47.7424312,29.2613057 46.285786,30.0454556 C45.4023682,30.5202133 42.1964939,30.5575593 40.0872017,29.1872304 C37.9776691,27.8161692 36.3144116,27.6055183 35.1745719,27.2344994 C33.8970286,26.8188118 34.4302996,29.4066685 35.8186306,29.8404188 C37.0654129,30.2304769 38.4489375,31.2925184 38.1749722,32.8620259 C37.7767613,35.1408628 35.3812474,36.346186 35.6028229,37.4311721 C36.1368148,40.0341624 40.5048785,40.1676804 42.2226888,38.5142055 C43.942662,36.8609747 45.2896579,34.5477208 46.8274682,34.6392551 C48.3650381,34.7307894 47.2797512,36.9371312 47.2797512,36.9371312 C45.5607801,39.918348 44.6385115,43.3335555 44.1797732,46.3779573 C42.8648667,47.8490804 41.5916261,49.1301861 40.3598809,50.2222222 C39.6506065,50.851048 38.8940403,51.4889728 38.0901822,52.1359964 C37.6732079,49.0784485 37.4724072,46.4201096 37.2379629,45.6653502 C36.8981499,44.57475 31.3729433,46.3795616 30.5092318,47.2033699 C29.991101,47.6964345 33.2849325,46.3651602 34.4105933,47.9651791 C36.6164943,51.104194 30.8151597,58.0703175 31.8103265,59.265877 C32.0364461,59.5369849 32.3793372,59.8175361 32.7487638,60.1065307 L32.9728822,60.2809327 C34.1774627,61.216395 35.4689644,62.2362692 33.8905399,63.3077859 C33.1676562,64.5948797 27.2874964,63.6748994 26.0200466,63.7664336 C24.7537983,63.8596765 22.03986,62.0214245 19.0545999,62.664117 C10.0086994,63.5833651 5.48490799,58.0703175 2.22832613,53.8443637 C-1.02921701,49.6167013 -0.124170348,44.2876986 1.23315932,48.1462949 C2.58976802,52.0061116 8.10872621,55.6816394 9.82749777,56.5999111 C11.5465096,57.5181829 11.9978314,56.5999111 11.9978314,56.5999111 C9.91761792,51.453977 11.2742266,45.3897711 12.2691531,42.6332473 C13.2643199,39.8767235 19.14472,34.0883409 19.7791659,33.904296 C20.4109682,33.7202511 21.1648534,36.1953375 20.973318,37.7553255 C20.6522499,40.3583158 21.0999668,41.336634 22.1468025,43.0699268 C23.4140121,45.1686243 25.3911281,46.5235755 26.2060546,46.4320412 C27.0188182,46.340507 29.006268,44.195188 28.4636245,43.0928713 C27.9200197,41.9907988 26.4725699,38.774651 27.4677367,37.9469372 C28.4626632,37.1201997 29.3677099,37.9469372 30.6339581,37.7638687 C31.9004466,37.5798238 32.5341716,36.4767749 31.9004466,36.0181272 C31.267683,35.5585032 29.3028233,34.5020757 29.3028233,34.5020757 C28.1266953,34.2264966 26.6508876,34.1530251 25.5648797,33.4170896 C22.5805809,31.17926 24.4973765,28.75348 24.4973765,28.75348 C27.013178,26.1972656 30.1827805,20.941918 30.4373323,20.5171686 L30.4537178,20.4897668 Z M46.285786,59.3574113 C48.4561196,61.4702661 47.6411931,63.1247174 47.6411931,63.1247174 C45.7421812,63.6748994 41.3995914,62.8491383 41.3995914,62.8491383 C40.6853424,62.0833161 40.1103131,60.9108585 39.6420676,59.5285436 L44.1684118,55.8543277 C44.3728017,57.0656851 44.7114961,57.8254635 46.285786,59.3574113 Z M50.2604452,2.96083361 C50.9739565,3.51199191 50.3130754,5.21306464 52.3031687,6.50015841 C53.7047173,7.40598146 56.8692564,8.3603787 58.7692296,9.73827446 C59.7117662,10.4227066 59.3681081,11.5040314 56.9874941,13.3642517 C56.673876,13.6093194 54.4602847,13.9964483 51.4930486,11.7271309 C51.1635693,13.1411522 56.1312325,15.0167502 55.5587893,15.1502682 C55.4347839,15.684096 54.386266,16.060729 52.8664797,15.8835187 C50.8780687,15.6516319 48.2477618,14.7716825 47.4638366,15.0758203 C45.5648247,15.8110235 46.1947045,19.8460979 45.8323014,21.9599291 C45.8323014,21.9599291 42.2142776,22.4195532 39.1381764,20.765346 C39.1381764,20.765346 40.5856262,18.3759356 40.223223,17.0895741 C39.8617811,15.8024803 38.6856531,13.781892 38.9579361,12.2192191 C38.9579361,12.2192191 38.2331297,12.7703774 38.8668546,14.9767193 C39.499378,17.1811084 38.9579361,20.765346 35.0676293,21.6833736 C35.0676293,21.6833736 34.3437842,20.6728354 34.3437842,19.4789845 C34.3437842,19.4789845 32.35297,18.2844013 31.6300862,17.1811084 L32.0816482,14.791698 C32.0816482,14.791698 32.5341716,16.0787918 33.4389779,16.813995 C33.4389779,16.813995 31.6346523,10.9643454 31.9960942,8.57493501 C35.7210605,-1.31076528 40.4073085,0.519919957 40.4073085,0.519919957 C40.4073085,0.519919957 44.252435,-1.67690233 50.2604452,2.96083361 Z"/>
    <path fill="#F4443D" fill-rule="nonzero" d="M61.2088013 13.0024029C62.7228712 15.4017591 63.8661851 18.6328561 63.8661851 22.9192715 63.8661851 26.4945008 62.7244843 30.4726111 60.4728634 34.7429596 58.5447244 38.3996078 55.8462377 42.2061131 52.4521148 46.0562502 46.4966376 52.8121164 39.8890643 58.025017 35.7651 60.3879871L33.3454933 58.4691628 34.229236 56.559521C42.4221447 51.6717312 59.842964 35.4154756 59.842964 22.8950707 59.842964 20.0607684 59.2023777 17.732105 58.1594233 15.8481663L61.2088013 13.0024029zM21.5030095 5.01315381C24.0117225 5.01315381 26.605603 5.79278962 29.2134842 7.33047572L30.3727508 13.269319C28.3899945 11.4953781 25.0500249 9.10109131 21.4706113 9.10109131 15.979186 9.10109131 7.80930414 12.7747141 7.80930414 22.8951388 7.80930414 27.3891469 10.0547497 32.3649474 13.3125789 37.1236388L10.7720626 40.5113188C9.37612289 38.558533 8.17521852 36.6309074 7.17967183 34.7429596 4.92785059 30.4728829 3.78608302 26.4948406 3.78608302 22.9192715 3.78608302 15.55378 7.1617785 11.3043639 9.9935971 9.03645908 13.1392833 6.51722937 17.4418929 5.01315381 21.5030095 5.01315381zM77.3299753 29L77.3299753 23.87 78.7130774 23.87C79.3237978 23.87 79.8806311 23.792 80.3835773 23.636 80.8865235 23.48 81.3146265 23.246 81.6678863 22.934 82.0211462 22.622 82.2965691 22.22 82.4941551 21.728 82.6917411 21.236 82.7905341 20.66 82.7905341 20 82.7905341 19.52 82.7306596 19.049 82.6109105 18.587 82.4911614 18.125 82.2935754 17.714 82.0181524 17.354 81.7427295 16.994 81.3804885 16.703 80.9314294 16.481 80.4823703 16.259 79.9285307 16.148 79.2699107 16.148L74.7433948 16.148 74.7433948 29 77.3299753 29zM78.4795666 21.962L77.3299753 21.962 77.3299753 18.056 78.4077172 18.056C79.0543623 18.056 79.5153963 18.224 79.7908192 18.56 80.0662422 18.896 80.2039536 19.388 80.2039536 20.036 80.2039536 20.696 80.0452861 21.182 79.727951 21.494 79.4106159 21.806 78.9944877 21.962 78.4795666 21.962zM87.1374263 29.198C87.6643224 29.198 88.1463125 29.144 88.5833967 29.036 89.0204809 28.928 89.3976906 28.748 89.7150257 28.496 90.0323608 28.244 90.2808401 27.929 90.4604638 27.551 90.6400874 27.173 90.7298993 26.726 90.7298993 26.21 90.7298993 25.478 90.568238 24.899 90.2449154 24.473 89.9215929 24.047 89.370747 23.702 88.5923779 23.438L87.1015016 22.934C86.6823798 22.802 86.3979757 22.64 86.2482893 22.448 86.0986029 22.256 86.0237597 22.04 86.0237597 21.8 86.0237597 21.452 86.1405151 21.191 86.3740259 21.017 86.6075366 20.843 86.8799658 20.756 87.1913134 20.756 87.5984604 20.756 87.8828645 20.873 88.0445258 21.107 88.206187 21.341 88.2870177 21.71 88.2870177 22.214L90.5143509 22.214 90.5143509 21.818C90.5143509 20.942 90.2449154 20.264 89.7060445 19.784 89.1671735 19.304 88.3349173 19.064 87.2092758 19.064 86.5746056 19.064 86.0327409 19.142 85.5836818 19.298 85.1346227 19.454 84.7663942 19.664 84.4789964 19.928 84.1915986 20.192 83.9820376 20.501 83.8503136 20.855 83.7185896 21.209 83.6527276 21.584 83.6527276 21.98 83.6527276 22.664 83.8263638 23.225 84.1736362 23.663 84.5209086 24.101 85.0358297 24.44 85.7183995 24.68L87.4607489 25.31C87.7002471 25.406 87.909808 25.535 88.0894317 25.697 88.2690553 25.859 88.3588671 26.096 88.3588671 26.408 88.3588671 26.792 88.2451055 27.08 88.0175822 27.272 87.7900589 27.464 87.4846987 27.56 87.1015016 27.56 86.6823798 27.56 86.3620509 27.431 86.1405151 27.173 85.9189793 26.915 85.8082114 26.576 85.8082114 26.156L85.8082114 25.832 83.5808782 25.832 83.5808782 26.174C83.5808782 26.642 83.6347653 27.065 83.7425394 27.443 83.8503136 27.821 84.0389185 28.142 84.3083539 28.406 84.5777894 28.67 84.9430241 28.868 85.4040582 29 85.8650922 29.132 86.4428816 29.198 87.1374263 29.198zM92.9751948 32.114C93.5499905 32.114 94.0259932 32.072 94.4032028 31.988 94.7804125 31.904 95.103735 31.727 95.3731705 31.457 95.642606 31.187 95.8761167 30.803 96.0737027 30.305 96.2712887 29.807 96.4778559 29.156 96.6934043 28.352L99.0285117 19.316 96.5497054 19.316 95.2923399 26.012 95.2564151 26.012 93.819426 19.316 91.2328455 19.316 93.9451625 29C93.9092378 29.396 93.7924824 29.714 93.5948964 29.954 93.3973104 30.194 93.0709941 30.314 92.6159475 30.314 92.4003992 30.314 92.1848508 30.296 91.9693024 30.26L91.9693024 32.114 92.9751948 32.114zM103.285592 29.198C104.602832 29.198 105.545856 28.865 106.114665 28.199 106.683473 27.533 106.967877 26.564 106.967877 25.292L104.596845 25.292C104.596845 26.084 104.501045 26.66 104.309447 27.02 104.117848 27.38 103.812488 27.56 103.393366 27.56 103.117943 27.56 102.893414 27.497 102.719778 27.371 102.546141 27.245 102.411424 27.044 102.315624 26.768 102.219825 26.492 102.153963 26.141 102.118038 25.715 102.082114 25.289 102.064151 24.776 102.064151 24.176 102.064151 23.612 102.082114 23.123 102.118038 22.709 102.153963 22.295 102.219825 21.953 102.315624 21.683 102.411424 21.413 102.555123 21.209 102.746721 21.071 102.93832 20.933 103.183805 20.864 103.483178 20.864 103.722676 20.864 103.914275 20.921 104.057974 21.035 104.201673 21.149 104.312441 21.299 104.390278 21.485 104.468114 21.671 104.522002 21.878 104.551939 22.106 104.581876 22.334 104.596845 22.568 104.596845 22.808L106.967877 22.808C106.967877 21.656 106.677485 20.744 106.096702 20.072 105.515919 19.4 104.650732 19.064 103.50114 19.064 102.926345 19.064 102.399449 19.142 101.920452 19.298 101.441456 19.454 101.028322 19.727 100.681049 20.117 100.333777 20.507 100.064341 21.029 99.8727428 21.683 99.6811443 22.337 99.585345 23.162 99.585345 24.158 99.585345 25.13 99.6631819 25.943 99.8188557 26.597 99.9745296 27.251 100.205047 27.773 100.510407 28.163 100.815767 28.553 101.198964 28.823 101.659998 28.973 102.121032 29.123 102.662897 29.198 103.285592 29.198zM110.739973 29L110.739973 22.574C110.739973 21.506 111.177058 20.972 112.051226 20.972 112.422448 20.972 112.691884 21.071 112.859532 21.269 113.027181 21.467 113.111006 21.818 113.111006 22.322L113.111006 29 115.589812 29 115.589812 21.818C115.589812 20.846 115.377257 20.144 114.952148 19.712 114.527039 19.28 113.919312 19.064 113.128968 19.064 112.039251 19.064 111.254895 19.478 110.775898 20.306L110.739973 20.306 110.739973 16.148 108.261167 16.148 108.261167 29 110.739973 29zM119.810967 18.128L119.810967 16.004 117.332161 16.004 117.332161 18.128 119.810967 18.128zM119.810967 29L119.810967 19.316 117.332161 19.316 117.332161 29 119.810967 29zM123.565102 29.198C124.163847 29.198 124.651825 29.123 125.029034 28.973 125.406244 28.823 125.738548 28.496 126.025946 27.992L126.06187 27.992C126.097795 28.16 126.136714 28.331 126.178626 28.505 126.220538 28.679 126.283406 28.844 126.367231 29L128.738263 29C128.618514 28.712 128.537683 28.442 128.495771 28.19 128.453859 27.938 128.432902 27.584 128.432902 27.128L128.432902 22.034C128.432902 21.602 128.387997 21.203 128.298185 20.837 128.208373 20.471 128.03773 20.156 127.786257 19.892 127.534784 19.628 127.181524 19.424 126.726478 19.28 126.271431 19.136 125.672686 19.064 124.930241 19.064 124.46322 19.064 124.023142 19.115 123.610008 19.217 123.196873 19.319 122.837626 19.487 122.532266 19.721 122.226906 19.955 121.984414 20.261 121.80479 20.639 121.625166 21.017 121.535354 21.488 121.535354 22.052L121.535354 22.286 123.762688 22.286 123.762688 22.016C123.762688 21.632 123.858487 21.326 124.050086 21.098 124.241684 20.87 124.529082 20.756 124.912279 20.756 125.331401 20.756 125.62778 20.861 125.801416 21.071 125.975052 21.281 126.06187 21.572 126.06187 21.944 126.06187 22.268 125.990021 22.514 125.846322 22.682 125.702623 22.85 125.445163 22.982 125.07394 23.078L123.672876 23.456C123.241779 23.576 122.873551 23.714 122.56819 23.87 122.26283 24.026 122.011357 24.221 121.813771 24.455 121.616185 24.689 121.469492 24.971 121.373693 25.301 121.277894 25.631 121.229994 26.024 121.229994 26.48 121.229994 26.804 121.271906 27.131 121.355731 27.461 121.439555 27.791 121.571279 28.088 121.750903 28.352 121.930527 28.616 122.170025 28.823 122.469397 28.973 122.76877 29.123 123.134005 29.198 123.565102 29.198zM124.535069 27.56C124.199772 27.56 123.960274 27.428 123.816575 27.164 123.672876 26.9 123.601026 26.582 123.601026 26.21 123.601026 25.778 123.708801 25.436 123.924349 25.184 124.139897 24.932 124.499145 24.752 125.002091 24.644 125.157765 24.608 125.331401 24.551 125.522999 24.473 125.714598 24.395 125.894222 24.29 126.06187 24.158L126.06187 26.066C126.06187 26.33 126.013971 26.558 125.918171 26.75 125.822372 26.942 125.699629 27.098 125.549943 27.218 125.400257 27.338 125.235602 27.425 125.055978 27.479 124.876354 27.533 124.702718 27.56 124.535069 27.56zM133.031268 29.054C133.318666 29.054 133.591095 29.045 133.848555 29.027 134.106016 29.009 134.372458 29 134.647881 29L134.647881 27.272C134.564056 27.284 134.474244 27.293 134.378445 27.299 134.282646 27.305 134.186847 27.308 134.091047 27.308 133.7318 27.308 133.495296 27.227 133.381534 27.065 133.267772 26.903 133.210891 26.63 133.210891 26.246L133.210891 21.008 134.647881 21.008 134.647881 19.316 133.210891 19.316 133.210891 16.544 130.732085 16.544 130.732085 19.316 129.47472 19.316 129.47472 21.008 130.732085 21.008 130.732085 26.552C130.732085 27.044 130.762022 27.452 130.821897 27.776 130.881772 28.1 130.992539 28.361 131.154201 28.559 131.315862 28.757 131.549373 28.889 131.854733 28.955 132.160093 29.021 132.552271 29.054 133.031268 29.054zM137.98888 29L137.98888 23.186C137.98888 22.862 138.042768 22.589 138.150542 22.367 138.258316 22.145 138.402015 21.965 138.581638 21.827 138.761262 21.689 138.958848 21.59 139.174397 21.53 139.389945 21.47 139.605493 21.44 139.821042 21.44 139.952766 21.44 140.081496 21.443 140.207232 21.449 140.332969 21.455 140.461699 21.464 140.593423 21.476L140.593423 19.1C140.521574 19.088 140.446731 19.079 140.368894 19.073 140.291057 19.067 140.216214 19.064 140.144364 19.064 139.629443 19.064 139.192359 19.205 138.833112 19.487 138.473864 19.769 138.168504 20.144 137.917031 20.612L137.881106 20.612 137.881106 19.316 135.510074 19.316 135.510074 29 137.98888 29zM144.06016 18.128L144.06016 16.004 141.581353 16.004 141.581353 18.128 144.06016 18.128zM144.06016 29L144.06016 19.316 141.581353 19.316 141.581353 29 144.06016 29zM149.143509 29.198C150.460749 29.198 151.403773 28.865 151.972581 28.199 152.541389 27.533 152.825794 26.564 152.825794 25.292L150.454761 25.292C150.454761 26.084 150.358962 26.66 150.167364 27.02 149.975765 27.38 149.670405 27.56 149.251283 27.56 148.97586 27.56 148.751331 27.497 148.577694 27.371 148.404058 27.245 148.26934 27.044 148.173541 26.768 148.077742 26.492 148.01188 26.141 147.975955 25.715 147.94003 25.289 147.922068 24.776 147.922068 24.176 147.922068 23.612 147.94003 23.123 147.975955 22.709 148.01188 22.295 148.077742 21.953 148.173541 21.683 148.26934 21.413 148.413039 21.209 148.604638 21.071 148.796236 20.933 149.041722 20.864 149.341095 20.864 149.580593 20.864 149.772192 20.921 149.915891 21.035 150.059589 21.149 150.170357 21.299 150.248194 21.485 150.326031 21.671 150.379918 21.878 150.409856 22.106 150.439793 22.334 150.454761 22.568 150.454761 22.808L152.825794 22.808C152.825794 21.656 152.535402 20.744 151.954619 20.072 151.373836 19.4 150.508649 19.064 149.359057 19.064 148.784262 19.064 148.257366 19.142 147.778369 19.298 147.299373 19.454 146.886238 19.727 146.538966 20.117 146.191694 20.507 145.922258 21.029 145.73066 21.683 145.539061 22.337 145.443262 23.162 145.443262 24.158 145.443262 25.13 145.521099 25.943 145.676772 26.597 145.832446 27.251 146.062963 27.773 146.368324 28.163 146.673684 28.553 147.056881 28.823 147.517915 28.973 147.978949 29.123 148.520814 29.198 149.143509 29.198zM162.076411 29.198C163.477476 29.198 164.570186 28.889 165.354543 28.271 166.138899 27.653 166.531078 26.666 166.531078 25.31 166.531078 24.914 166.495153 24.554 166.423304 24.23 166.351454 23.906 166.222724 23.609 166.037113 23.339 165.851502 23.069 165.603022 22.817 165.291675 22.583 164.980327 22.349 164.579167 22.124 164.088196 21.908L162.094374 21.044C161.543528 20.816 161.184281 20.567 161.016632 20.297 160.848983 20.027 160.765159 19.694 160.765159 19.298 160.765159 19.106 160.786115 18.92 160.828027 18.74 160.869939 18.56 160.947776 18.401 161.061538 18.263 161.175299 18.125 161.327979 18.014 161.519578 17.93 161.711177 17.846 161.950675 17.804 162.238073 17.804 162.741019 17.804 163.100266 17.969 163.315814 18.299 163.531363 18.629 163.639137 19.1 163.639137 19.712L166.117943 19.712 166.117943 19.352C166.117943 18.74 166.01915 18.215 165.821564 17.777 165.623978 17.339 165.348555 16.979 164.995296 16.697 164.642036 16.415 164.222914 16.211 163.73793 16.085 163.252946 15.959 162.723056 15.896 162.148261 15.896 160.914845 15.896 159.944877 16.208 159.238358 16.832 158.531838 17.456 158.178578 18.404 158.178578 19.676 158.178578 20.204 158.24444 20.669 158.376164 21.071 158.507888 21.473 158.714455 21.827 158.995866 22.133 159.277276 22.439 159.627542 22.706 160.046664 22.934 160.465786 23.162 160.962745 23.372 161.53754 23.564 161.968637 23.708 162.330878 23.849 162.624263 23.987 162.917649 24.125 163.154153 24.278 163.333777 24.446 163.5134 24.614 163.642131 24.803 163.719968 25.013 163.797805 25.223 163.836723 25.472 163.836723 25.76 163.836723 26.3 163.678056 26.699 163.36072 26.957 163.043385 27.215 162.687132 27.344 162.29196 27.344 161.956662 27.344 161.678246 27.296 161.45671 27.2 161.235174 27.104 161.058544 26.972 160.92682 26.804 160.795096 26.636 160.705284 26.429 160.657385 26.183 160.609485 25.937 160.585535 25.664 160.585535 25.364L160.585535 24.986 157.998955 24.986 157.998955 25.508C157.998955 26.696 158.313296 27.608 158.941979 28.244 159.570661 28.88 160.615472 29.198 162.076411 29.198zM171.129443 29.198C172.314959 29.198 173.18314 28.904 173.733986 28.316 174.284832 27.728 174.584205 26.87 174.632104 25.742L172.404771 25.742C172.332921 26.354 172.201197 26.81 172.009599 27.11 171.818 27.41 171.51264 27.56 171.093518 27.56 170.865995 27.56 170.674397 27.497 170.518723 27.371 170.363049 27.245 170.237312 27.077 170.141513 26.867 170.045714 26.657 169.976858 26.417 169.934946 26.147 169.893034 25.877 169.872078 25.598 169.872078 25.31L169.872078 24.536 174.775803 24.536 174.775803 23.978C174.775803 23.234 174.727903 22.559 174.632104 21.953 174.536305 21.347 174.356681 20.831 174.093233 20.405 173.829785 19.979 173.467544 19.649 173.00651 19.415 172.545476 19.181 171.955712 19.064 171.237217 19.064 170.398974 19.064 169.728379 19.202 169.225432 19.478 168.722486 19.754 168.336295 20.126 168.06686 20.594 167.797424 21.062 167.617801 21.596 167.527989 22.196 167.438177 22.796 167.393271 23.42 167.393271 24.068 167.393271 24.68 167.420215 25.292 167.474102 25.904 167.527989 26.516 167.674682 27.068 167.91418 27.56 168.153678 28.052 168.5249 28.448 169.027846 28.748 169.530793 29.048 170.231325 29.198 171.129443 29.198zM172.404771 23.06L169.872078 23.06 169.872078 22.682C169.872078 22.454 169.893034 22.226 169.934946 21.998 169.976858 21.77 170.045714 21.563 170.141513 21.377 170.237312 21.191 170.366043 21.041 170.527704 20.927 170.689365 20.813 170.895932 20.756 171.147405 20.756 171.398879 20.756 171.605446 20.807 171.767107 20.909 171.928768 21.011 172.054505 21.161 172.144317 21.359 172.234128 21.557 172.296997 21.797 172.332921 22.079 172.368846 22.361 172.392796 22.688 172.404771 23.06zM178.5479 29L178.5479 23.186C178.5479 22.862 178.601787 22.589 178.709561 22.367 178.817335 22.145 178.961034 21.965 179.140658 21.827 179.320281 21.689 179.517867 21.59 179.733416 21.53 179.948964 21.47 180.164512 21.44 180.380061 21.44 180.511785 21.44 180.640515 21.443 180.766252 21.449 180.891988 21.455 181.020718 21.464 181.152443 21.476L181.152443 19.1C181.080593 19.088 181.00575 19.079 180.927913 19.073 180.850076 19.067 180.775233 19.064 180.703383 19.064 180.188462 19.064 179.751378 19.205 179.392131 19.487 179.032883 19.769 178.727523 20.144 178.47605 20.612L178.440125 20.612 178.440125 19.316 176.069093 19.316 176.069093 29 178.5479 29zM187.008173 29L189.433093 19.316 186.954286 19.316 185.643034 26.246 185.607109 26.246 184.224007 19.316 181.637426 19.316 184.134195 29 187.008173 29zM192.917791 18.128L192.917791 16.004 190.438985 16.004 190.438985 18.128 192.917791 18.128zM192.917791 29L192.917791 19.316 190.438985 19.316 190.438985 29 192.917791 29zM198.00114 29.198C199.318381 29.198 200.261405 28.865 200.830213 28.199 201.399021 27.533 201.683425 26.564 201.683425 25.292L199.312393 25.292C199.312393 26.084 199.216594 26.66 199.024995 27.02 198.833397 27.38 198.528036 27.56 198.108915 27.56 197.833492 27.56 197.608962 27.497 197.435326 27.371 197.26169 27.245 197.126972 27.044 197.031173 26.768 196.935374 26.492 196.869511 26.141 196.833587 25.715 196.797662 25.289 196.7797 24.776 196.7797 24.176 196.7797 23.612 196.797662 23.123 196.833587 22.709 196.869511 22.295 196.935374 21.953 197.031173 21.683 197.126972 21.413 197.270671 21.209 197.46227 21.071 197.653868 20.933 197.899354 20.864 198.198726 20.864 198.438225 20.864 198.629823 20.921 198.773522 21.035 198.917221 21.149 199.027989 21.299 199.105826 21.485 199.183663 21.671 199.23755 21.878 199.267487 22.106 199.297424 22.334 199.312393 22.568 199.312393 22.808L201.683425 22.808C201.683425 21.656 201.393034 20.744 200.812251 20.072 200.231467 19.4 199.36628 19.064 198.216689 19.064 197.641893 19.064 197.114997 19.142 196.636001 19.298 196.157004 19.454 195.74387 19.727 195.396598 20.117 195.049325 20.507 194.77989 21.029 194.588291 21.683 194.396693 22.337 194.300893 23.162 194.300893 24.158 194.300893 25.13 194.37873 25.943 194.534404 26.597 194.690078 27.251 194.920595 27.773 195.225955 28.163 195.531315 28.553 195.914512 28.823 196.375546 28.973 196.83658 29.123 197.378445 29.198 198.00114 29.198zM206.35364 29.198C207.539156 29.198 208.407337 28.904 208.958183 28.316 209.509029 27.728 209.808401 26.87 209.856301 25.742L207.628968 25.742C207.557118 26.354 207.425394 26.81 207.233796 27.11 207.042197 27.41 206.736837 27.56 206.317715 27.56 206.090192 27.56 205.898593 27.497 205.74292 27.371 205.587246 27.245 205.461509 27.077 205.36571 26.867 205.269911 26.657 205.201055 26.417 205.159143 26.147 205.117231 25.877 205.096274 25.598 205.096274 25.31L205.096274 24.536 210 24.536 210 23.978C210 23.234 209.9521 22.559 209.856301 21.953 209.760502 21.347 209.580878 20.831 209.31743 20.405 209.053982 19.979 208.691741 19.649 208.230707 19.415 207.769673 19.181 207.179909 19.064 206.461414 19.064 205.62317 19.064 204.952576 19.202 204.449629 19.478 203.946683 19.754 203.560492 20.126 203.291057 20.594 203.021621 21.062 202.841998 21.596 202.752186 22.196 202.662374 22.796 202.617468 23.42 202.617468 24.068 202.617468 24.68 202.644412 25.292 202.698299 25.904 202.752186 26.516 202.898879 27.068 203.138377 27.56 203.377875 28.052 203.749097 28.448 204.252043 28.748 204.75499 29.048 205.455522 29.198 206.35364 29.198zM207.628968 23.06L205.096274 23.06 205.096274 22.682C205.096274 22.454 205.117231 22.226 205.159143 21.998 205.201055 21.77 205.269911 21.563 205.36571 21.377 205.461509 21.191 205.590239 21.041 205.751901 20.927 205.913562 20.813 206.120129 20.756 206.371602 20.756 206.623075 20.756 206.829643 20.807 206.991304 20.909 207.152965 21.011 207.278702 21.161 207.368514 21.359 207.458325 21.557 207.521194 21.797 207.557118 22.079 207.593043 22.361 207.616993 22.688 207.628968 23.06zM78.9465881 49C79.8087816 49 80.5212887 48.868 81.0841095 48.604 81.6469302 48.34 82.0959894 47.938 82.4312868 47.398 82.7665843 46.858 83.0030888 46.171 83.1408002 45.337 83.2785117 44.503 83.3473674 43.522 83.3473674 42.394 83.3473674 41.446 83.2934803 40.588 83.1857061 39.82 83.077932 39.052 82.8713648 38.395 82.5660046 37.849 82.2606444 37.303 81.8325413 36.883 81.2816955 36.589 80.7308496 36.295 80.0063676 36.148 79.1082494 36.148L74.8691313 36.148 74.8691313 49 78.9465881 49zM78.6053032 47.092L77.4557118 47.092 77.4557118 38.056 78.5514161 38.056C79.0423874 38.056 79.4345657 38.149 79.727951 38.335 80.0213362 38.521 80.2428721 38.797 80.3925584 39.163 80.5422448 39.529 80.6410378 39.988 80.6889375 40.54 80.7368371 41.092 80.7607869 41.734 80.7607869 42.466 80.7607869 43.342 80.7338434 44.074 80.6799563 44.662 80.6260692 45.25 80.518295 45.724 80.3566337 46.084 80.1949724 46.444 79.9764303 46.702 79.7010074 46.858 79.4255845 47.014 79.0603497 47.092 78.6053032 47.092zM88.4666413 49.198C89.173161 49.198 89.7689128 49.096 90.2538966 48.892 90.7388804 48.688 91.1310587 48.373 91.4304315 47.947 91.7298042 47.521 91.9453526 46.99 92.0770766 46.354 92.2088006 45.718 92.2746626 44.986 92.2746626 44.158 92.2746626 43.306 92.2147881 42.562 92.095039 41.926 91.9752899 41.29 91.7717164 40.756 91.4843186 40.324 91.1969207 39.892 90.8077362 39.571 90.3167649 39.361 89.8257936 39.151 89.2090857 39.052 88.4666413 39.064 87.7601216 39.064 87.1643699 39.175 86.679386 39.397 86.1944022 39.619 85.8022239 39.943 85.5028512 40.369 85.2034784 40.795 84.9879301 41.326 84.856206 41.962 84.724482 42.598 84.65862 43.33 84.65862 44.158 84.65862 44.998 84.7184946 45.739 84.8382437 46.381 84.9579928 47.023 85.1615662 47.557 85.4489641 47.983 85.7363619 48.409 86.1255465 48.721 86.6165178 48.919 87.1074891 49.117 87.7241969 49.21 88.4666413 49.198zM88.4666413 47.56C88.1672686 47.56 87.9277704 47.476 87.7481467 47.308 87.5685231 47.14 87.4338054 46.906 87.3439935 46.606 87.2541817 46.306 87.1973009 45.946 87.1733511 45.526 87.1494013 45.106 87.1374263 44.65 87.1374263 44.158 87.1374263 43.666 87.1494013 43.21 87.1733511 42.79 87.1973009 42.37 87.2541817 42.01 87.3439935 41.71 87.4338054 41.41 87.5685231 41.176 87.7481467 41.008 87.9277704 40.84 88.1672686 40.756 88.4666413 40.756 88.9695875 40.756 89.3168599 41.02 89.5084585 41.548 89.700057 42.076 89.7958563 42.946 89.7958563 44.158 89.7958563 45.37 89.700057 46.24 89.5084585 46.768 89.3168599 47.296 88.9695875 47.56 88.4666413 47.56zM96.8191408 52.258C98.2681049 52.258 99.3009409 51.946 99.9176487 51.322 100.534357 50.698 100.842711 49.762 100.842711 48.514L100.842711 39.316 98.4716784 39.316 98.4716784 40.396 98.4357537 40.396C98.1962555 39.892 97.8908953 39.544 97.5196731 39.352 97.1484509 39.16 96.7892036 39.064 96.4419312 39.064 95.7713362 39.064 95.235459 39.214 94.8342996 39.514 94.4331401 39.814 94.1277799 40.201 93.918219 40.675 93.708658 41.149 93.5709466 41.68 93.5050846 42.268 93.4392226 42.856 93.4062916 43.432 93.4062916 43.996 93.4062916 45.76 93.654771 47.017 94.1517297 47.767 94.6486885 48.517 95.3881391 48.892 96.3700817 48.892 96.7652538 48.892 97.1454571 48.784 97.5106919 48.568 97.8759266 48.352 98.1842806 48.064 98.4357537 47.704L98.4716784 47.704 98.4716784 48.982C98.4716784 49.462 98.3698917 49.864 98.1663182 50.188 97.9627447 50.512 97.6094849 50.674 97.1065387 50.674 96.9508649 50.674 96.8041722 50.65 96.6664607 50.602 96.5287493 50.554 96.400019 50.488 96.2802699 50.404 96.0287968 50.224 95.9030603 49.978 95.9030603 49.666L93.5320281 49.666C93.5320281 50.494 93.8164322 51.133 94.3852404 51.583 94.9540487 52.033 95.7653488 52.258 96.8191408 52.258zM97.124501 46.984C96.861053 46.984 96.6484984 46.915 96.4868371 46.777 96.3251758 46.639 96.1994393 46.453 96.1096274 46.219 96.0198156 45.985 95.9599411 45.718 95.9300038 45.418 95.9000665 45.118 95.8850979 44.8 95.8850979 44.464 95.8850979 43.816 95.9000665 43.267 95.9300038 42.817 95.9599411 42.367 96.0228094 42.007 96.1186086 41.737 96.2144079 41.467 96.3461319 41.272 96.5137807 41.152 96.6814294 41.032 96.9029652 40.972 97.1783881 40.972 97.6693594 40.972 98.0076506 41.218 98.1932617 41.71 98.3788728 42.202 98.4716784 43.036 98.4716784 44.212 98.4716784 44.62 98.4507223 44.995 98.4088101 45.337 98.3668979 45.679 98.2950485 45.97 98.1932617 46.21 98.091475 46.45 97.9537635 46.639 97.7801274 46.777 97.6064912 46.915 97.3879491 46.984 97.124501 46.984zM108.099506 49L108.692264 46.282 112.105113 46.282 112.697871 49 115.392226 49 111.997339 36.148 108.800038 36.148 105.405151 49 108.099506 49zM111.656054 44.158L109.141323 44.158 110.380726 38.38 110.416651 38.38 111.656054 44.158zM119.361908 49.198C119.888804 49.198 120.370795 49.144 120.807879 49.036 121.244963 48.928 121.622173 48.748 121.939508 48.496 122.256843 48.244 122.505322 47.929 122.684946 47.551 122.864569 47.173 122.954381 46.726 122.954381 46.21 122.954381 45.478 122.79272 44.899 122.469397 44.473 122.146075 44.047 121.595229 43.702 120.81686 43.438L119.325984 42.934C118.906862 42.802 118.622458 42.64 118.472771 42.448 118.323085 42.256 118.248242 42.04 118.248242 41.8 118.248242 41.452 118.364997 41.191 118.598508 41.017 118.832019 40.843 119.104448 40.756 119.415795 40.756 119.822942 40.756 120.107347 40.873 120.269008 41.107 120.430669 41.341 120.5115 41.71 120.5115 42.214L122.738833 42.214 122.738833 41.818C122.738833 40.942 122.469397 40.264 121.930527 39.784 121.391656 39.304 120.559399 39.064 119.433758 39.064 118.799088 39.064 118.257223 39.142 117.808164 39.298 117.359105 39.454 116.990876 39.664 116.703478 39.928 116.416081 40.192 116.20652 40.501 116.074796 40.855 115.943072 41.209 115.87721 41.584 115.87721 41.98 115.87721 42.664 116.050846 43.225 116.398118 43.663 116.745391 44.101 117.260312 44.44 117.942882 44.68L119.685231 45.31C119.924729 45.406 120.13429 45.535 120.313914 45.697 120.493537 45.859 120.583349 46.096 120.583349 46.408 120.583349 46.792 120.469588 47.08 120.242064 47.272 120.014541 47.464 119.709181 47.56 119.325984 47.56 118.906862 47.56 118.586533 47.431 118.364997 47.173 118.143461 46.915 118.032693 46.576 118.032693 46.156L118.032693 45.832 115.80536 45.832 115.80536 46.174C115.80536 46.642 115.859247 47.065 115.967021 47.443 116.074796 47.821 116.2634 48.142 116.532836 48.406 116.802271 48.67 117.167506 48.868 117.62854 49 118.089574 49.132 118.667364 49.198 119.361908 49.198zM127.337198 49.198C127.864094 49.198 128.346084 49.144 128.783169 49.036 129.220253 48.928 129.597462 48.748 129.914798 48.496 130.232133 48.244 130.480612 47.929 130.660236 47.551 130.839859 47.173 130.929671 46.726 130.929671 46.21 130.929671 45.478 130.76801 44.899 130.444687 44.473 130.121365 44.047 129.570519 43.702 128.79215 43.438L127.301274 42.934C126.882152 42.802 126.597748 42.64 126.448061 42.448 126.298375 42.256 126.223532 42.04 126.223532 41.8 126.223532 41.452 126.340287 41.191 126.573798 41.017 126.807308 40.843 127.079738 40.756 127.391085 40.756 127.798232 40.756 128.082636 40.873 128.244298 41.107 128.405959 41.341 128.48679 41.71 128.48679 42.214L130.714123 42.214 130.714123 41.818C130.714123 40.942 130.444687 40.264 129.905816 39.784 129.366945 39.304 128.534689 39.064 127.409048 39.064 126.774377 39.064 126.232513 39.142 125.783454 39.298 125.334395 39.454 124.966166 39.664 124.678768 39.928 124.39137 40.192 124.18181 40.501 124.050086 40.855 123.918362 41.209 123.8525 41.584 123.8525 41.98 123.8525 42.664 124.026136 43.225 124.373408 43.663 124.72068 44.101 125.235602 44.44 125.918171 44.68L127.660521 45.31C127.900019 45.406 128.10958 45.535 128.289204 45.697 128.468827 45.859 128.558639 46.096 128.558639 46.408 128.558639 46.792 128.444877 47.08 128.217354 47.272 127.989831 47.464 127.684471 47.56 127.301274 47.56 126.882152 47.56 126.561823 47.431 126.340287 47.173 126.118751 46.915 126.007983 46.576 126.007983 46.156L126.007983 45.832 123.78065 45.832 123.78065 46.174C123.78065 46.642 123.834537 47.065 123.942311 47.443 124.050086 47.821 124.23869 48.142 124.508126 48.406 124.777561 48.67 125.142796 48.868 125.60383 49 126.064864 49.132 126.642653 49.198 127.337198 49.198zM135.653773 49.198C136.360293 49.198 136.956044 49.096 137.441028 48.892 137.926012 48.688 138.31819 48.373 138.617563 47.947 138.916936 47.521 139.132484 46.99 139.264208 46.354 139.395932 45.718 139.461794 44.986 139.461794 44.158 139.461794 43.306 139.40192 42.562 139.282171 41.926 139.162422 41.29 138.958848 40.756 138.67145 40.324 138.384052 39.892 137.994868 39.571 137.503897 39.361 137.012925 39.151 136.396217 39.052 135.653773 39.064 134.947253 39.064 134.351502 39.175 133.866518 39.397 133.381534 39.619 132.989356 39.943 132.689983 40.369 132.39061 40.795 132.175062 41.326 132.043338 41.962 131.911614 42.598 131.845752 43.33 131.845752 44.158 131.845752 44.998 131.905626 45.739 132.025375 46.381 132.145125 47.023 132.348698 47.557 132.636096 47.983 132.923494 48.409 133.312678 48.721 133.803649 48.919 134.294621 49.117 134.911329 49.21 135.653773 49.198zM135.653773 47.56C135.3544 47.56 135.114902 47.476 134.935278 47.308 134.755655 47.14 134.620937 46.906 134.531125 46.606 134.441313 46.306 134.384433 45.946 134.360483 45.526 134.336533 45.106 134.324558 44.65 134.324558 44.158 134.324558 43.666 134.336533 43.21 134.360483 42.79 134.384433 42.37 134.441313 42.01 134.531125 41.71 134.620937 41.41 134.755655 41.176 134.935278 41.008 135.114902 40.84 135.3544 40.756 135.653773 40.756 136.156719 40.756 136.503992 41.02 136.69559 41.548 136.887189 42.076 136.982988 42.946 136.982988 44.158 136.982988 45.37 136.887189 46.24 136.69559 46.768 136.503992 47.296 136.156719 47.56 135.653773 47.56zM144.132009 49.198C145.449249 49.198 146.392273 48.865 146.961082 48.199 147.52989 47.533 147.814294 46.564 147.814294 45.292L145.443262 45.292C145.443262 46.084 145.347462 46.66 145.155864 47.02 144.964265 47.38 144.658905 47.56 144.239783 47.56 143.96436 47.56 143.739831 47.497 143.566195 47.371 143.392558 47.245 143.257841 47.044 143.162041 46.768 143.066242 46.492 143.00038 46.141 142.964455 45.715 142.928531 45.289 142.910568 44.776 142.910568 44.176 142.910568 43.612 142.928531 43.123 142.964455 42.709 143.00038 42.295 143.066242 41.953 143.162041 41.683 143.257841 41.413 143.40154 41.209 143.593138 41.071 143.784737 40.933 144.030222 40.864 144.329595 40.864 144.569093 40.864 144.760692 40.921 144.904391 41.035 145.04809 41.149 145.158858 41.299 145.236695 41.485 145.314531 41.671 145.368419 41.878 145.398356 42.106 145.428293 42.334 145.443262 42.568 145.443262 42.808L147.814294 42.808C147.814294 41.656 147.523902 40.744 146.943119 40.072 146.362336 39.4 145.497149 39.064 144.347557 39.064 143.772762 39.064 143.245866 39.142 142.766869 39.298 142.287873 39.454 141.874739 39.727 141.527466 40.117 141.180194 40.507 140.910758 41.029 140.71916 41.683 140.527561 42.337 140.431762 43.162 140.431762 44.158 140.431762 45.13 140.509599 45.943 140.665273 46.597 140.820947 47.251 141.051464 47.773 141.356824 48.163 141.662184 48.553 142.045381 48.823 142.506415 48.973 142.967449 49.123 143.509314 49.198 144.132009 49.198zM151.676202 38.128L151.676202 36.004 149.197396 36.004 149.197396 38.128 151.676202 38.128zM151.676202 49L151.676202 39.316 149.197396 39.316 149.197396 49 151.676202 49zM155.430336 49.198C156.029082 49.198 156.517059 49.123 156.894269 48.973 157.271479 48.823 157.603783 48.496 157.89118 47.992L157.927105 47.992C157.96303 48.16 158.001948 48.331 158.04386 48.505 158.085773 48.679 158.148641 48.844 158.232465 49L160.603497 49C160.483748 48.712 160.402918 48.442 160.361006 48.19 160.319093 47.938 160.298137 47.584 160.298137 47.128L160.298137 42.034C160.298137 41.602 160.253231 41.203 160.16342 40.837 160.073608 40.471 159.902965 40.156 159.651492 39.892 159.400019 39.628 159.046759 39.424 158.591713 39.28 158.136666 39.136 157.537921 39.064 156.795476 39.064 156.328455 39.064 155.888377 39.115 155.475242 39.217 155.062108 39.319 154.702861 39.487 154.3975 39.721 154.09214 39.955 153.849648 40.261 153.670025 40.639 153.490401 41.017 153.400589 41.488 153.400589 42.052L153.400589 42.286 155.627922 42.286 155.627922 42.016C155.627922 41.632 155.723722 41.326 155.91532 41.098 156.106919 40.87 156.394317 40.756 156.777514 40.756 157.196636 40.756 157.493015 40.861 157.666651 41.071 157.840287 41.281 157.927105 41.572 157.927105 41.944 157.927105 42.268 157.855256 42.514 157.711557 42.682 157.567858 42.85 157.310397 42.982 156.939175 43.078L155.538111 43.456C155.107014 43.576 154.738785 43.714 154.433425 43.87 154.128065 44.026 153.876592 44.221 153.679006 44.455 153.48142 44.689 153.334727 44.971 153.238928 45.301 153.143129 45.631 153.095229 46.024 153.095229 46.48 153.095229 46.804 153.137141 47.131 153.220966 47.461 153.30479 47.791 153.436514 48.088 153.616138 48.352 153.795761 48.616 154.035259 48.823 154.334632 48.973 154.634005 49.123 154.99924 49.198 155.430336 49.198zM156.400304 47.56C156.065007 47.56 155.825508 47.428 155.68181 47.164 155.538111 46.9 155.466261 46.582 155.466261 46.21 155.466261 45.778 155.574035 45.436 155.789584 45.184 156.005132 44.932 156.364379 44.752 156.867326 44.644 157.022999 44.608 157.196636 44.551 157.388234 44.473 157.579833 44.395 157.759456 44.29 157.927105 44.158L157.927105 46.066C157.927105 46.33 157.879205 46.558 157.783406 46.75 157.687607 46.942 157.564864 47.098 157.415178 47.218 157.265491 47.338 157.100836 47.425 156.921213 47.479 156.741589 47.533 156.567953 47.56 156.400304 47.56zM164.896503 49.054C165.1839 49.054 165.45633 49.045 165.71379 49.027 165.971251 49.009 166.237692 49 166.513115 49L166.513115 47.272C166.429291 47.284 166.339479 47.293 166.24368 47.299 166.147881 47.305 166.052081 47.308 165.956282 47.308 165.597035 47.308 165.36053 47.227 165.246769 47.065 165.133007 46.903 165.076126 46.63 165.076126 46.246L165.076126 41.008 166.513115 41.008 166.513115 39.316 165.076126 39.316 165.076126 36.544 162.59732 36.544 162.59732 39.316 161.339954 39.316 161.339954 41.008 162.59732 41.008 162.59732 46.552C162.59732 47.044 162.627257 47.452 162.687132 47.776 162.747006 48.1 162.857774 48.361 163.019435 48.559 163.181097 48.757 163.414607 48.889 163.719968 48.955 164.025328 49.021 164.417506 49.054 164.896503 49.054zM169.943927 38.128L169.943927 36.004 167.465121 36.004 167.465121 38.128 169.943927 38.128zM169.943927 49L169.943927 39.316 167.465121 39.316 167.465121 49 169.943927 49zM175.170975 49.198C175.877495 49.198 176.473247 49.096 176.95823 48.892 177.443214 48.688 177.835393 48.373 178.134765 47.947 178.434138 47.521 178.649686 46.99 178.78141 46.354 178.913134 45.718 178.978996 44.986 178.978996 44.158 178.978996 43.306 178.919122 42.562 178.799373 41.926 178.679624 41.29 178.47605 40.756 178.188652 40.324 177.901255 39.892 177.51207 39.571 177.021099 39.361 176.530127 39.151 175.91342 39.052 175.170975 39.064 174.464455 39.064 173.868704 39.175 173.38372 39.397 172.898736 39.619 172.506558 39.943 172.207185 40.369 171.907812 40.795 171.692264 41.326 171.56054 41.962 171.428816 42.598 171.362954 43.33 171.362954 44.158 171.362954 44.998 171.422828 45.739 171.542577 46.381 171.662327 47.023 171.8659 47.557 172.153298 47.983 172.440696 48.409 172.82988 48.721 173.320852 48.919 173.811823 49.117 174.428531 49.21 175.170975 49.198zM175.170975 47.56C174.871602 47.56 174.632104 47.476 174.452481 47.308 174.272857 47.14 174.138139 46.906 174.048327 46.606 173.958515 46.306 173.901635 45.946 173.877685 45.526 173.853735 45.106 173.84176 44.65 173.84176 44.158 173.84176 43.666 173.853735 43.21 173.877685 42.79 173.901635 42.37 173.958515 42.01 174.048327 41.71 174.138139 41.41 174.272857 41.176 174.452481 41.008 174.632104 40.84 174.871602 40.756 175.170975 40.756 175.673921 40.756 176.021194 41.02 176.212792 41.548 176.404391 42.076 176.50019 42.946 176.50019 44.158 176.50019 45.37 176.404391 46.24 176.212792 46.768 176.021194 47.296 175.673921 47.56 175.170975 47.56zM182.787018 49L182.787018 42.574C182.787018 41.506 183.224102 40.972 184.09827 40.972 184.469492 40.972 184.738928 41.071 184.906577 41.269 185.074225 41.467 185.15805 41.818 185.15805 42.322L185.15805 49 187.636856 49 187.636856 41.818C187.636856 40.846 187.424301 40.144 186.999192 39.712 186.574083 39.28 185.966356 39.064 185.176012 39.064 184.637141 39.064 184.158145 39.175 183.739023 39.397 183.319901 39.619 182.978616 39.97 182.715168 40.45L182.679243 40.45 182.679243 39.316 180.308211 39.316 180.308211 49 182.787018 49z"/>
  </g>
</svg>
