<svg xmlns="http://www.w3.org/2000/svg" width="210" height="64" viewBox="0 0 210 64">
  <g fill="none" fill-rule="evenodd">
    <path fill="#2F2D3A" d="M30.5175256,20.4897668 C36.9604211,26.7489954 45.7009175,25.216227 45.9239739,25.1758964 L45.9283309,25.1751006 L45.9441054,25.2076378 C46.1285597,25.5917361 47.842463,29.2613057 46.3827657,30.0454556 C45.4974969,30.5202133 42.2849056,30.5575593 40.1711939,29.1872304 C38.0572414,27.8161692 36.3904989,27.6055183 35.248271,27.2344994 C33.9680509,26.8188118 34.5024393,29.4066685 35.8936791,29.8404188 C37.1430737,30.2304769 38.5294971,31.2925184 38.2549578,32.8620259 C37.8559126,35.1408628 35.4553796,36.346186 35.6774192,37.4311721 C36.21253,40.0341624 40.5897459,40.1676804 42.3111554,38.5142055 C44.0347323,36.8609747 45.3845505,34.5477208 46.9255829,34.6392551 C48.4663744,34.7307894 47.3788135,36.9371312 47.3788135,36.9371312 C45.6560528,39.9186733 44.731838,43.334301 44.2721898,46.3789541 C42.9541016,47.8496599 41.6784913,49.1304331 40.4444444,50.2222222 C39.7338008,50.8509447 38.9757817,51.4887631 38.1703873,52.1356775 C37.7521423,49.0784485 37.5509208,46.4201096 37.3159853,45.6653502 C36.9754603,44.57475 31.4386771,46.3795616 30.5731559,47.2033699 C30.0539395,47.6964345 33.3546724,46.3651602 34.4826917,47.9651791 C36.6932146,51.104194 30.8797248,58.0703175 31.8769767,59.265877 C32.1428463,59.5839769 32.5698133,59.9150776 33.0118104,60.2575638 L33.2333853,60.4297481 L33.4534078,60.6037852 C34.5065615,61.4493695 35.3631387,62.3583031 33.9615487,63.3077859 C33.2371503,64.5948797 27.3446702,63.6748994 26.0745648,63.7664336 C24.8056634,63.8596765 22.0860387,62.0214245 19.0945238,62.664117 C10.02967,63.5833651 5.49640017,58.0703175 2.232995,53.8443637 C-1.03137346,49.6167013 -0.124430514,44.2876986 1.23574308,48.1462949 C2.59519421,52.0061116 8.12571592,55.6816394 9.84808871,56.5999111 C11.5707023,57.5181829 12.0229697,56.5999111 12.0229697,56.5999111 C9.93839769,51.453977 11.2978488,45.3897711 12.2948599,42.6332473 C13.2921118,39.8767235 19.1848327,34.0883409 19.8206079,33.904296 C20.4537341,33.7202511 21.2091988,36.1953375 21.0172621,37.7553255 C20.6955213,40.3583158 21.1441763,41.336634 22.1932054,43.0699268 C23.46307,45.1686243 25.4443285,46.5235755 26.2609625,46.4320412 C27.075429,46.340507 29.067043,44.195188 28.5232626,43.0928713 C27.9785188,41.9907988 26.5280362,38.774651 27.5252882,37.9469372 C28.5222993,37.1201997 29.4292422,37.9469372 30.6981435,37.7638687 C31.9672857,37.5798238 32.6023384,36.4767749 31.9672857,36.0181272 C31.3331962,35.5585032 29.3642197,34.5020757 29.3642197,34.5020757 C28.1856274,34.2264966 26.7067276,34.1530251 25.6184442,33.4170896 C22.6278926,31.17926 24.5487043,28.75348 24.5487043,28.75348 C27.0697771,26.1972656 30.2460206,20.941918 30.5011058,20.5171686 L30.5175256,20.4897668 Z M46.3827657,59.3574113 C48.5576467,61.4702661 47.7410127,63.1247174 47.7410127,63.1247174 C46.6837956,63.4303741 44.8708076,63.3113569 43.4680957,63.1451873 L43.0607565,63.0942993 C42.1444592,62.9740219 41.4863334,62.8491383 41.4863334,62.8491383 C40.7704149,62.0831311 40.1940753,60.9102918 39.724787,59.5275414 L44.2609552,55.8543277 C44.4657733,57.0656851 44.8051773,57.8254635 46.3827657,59.3574113 Z M50.3657528,2.96083361 C51.0807591,3.51199191 50.4184933,5.21306464 52.4127563,6.50015841 C53.8172415,7.40598146 56.9884111,8.3603787 58.8923651,9.73827446 C59.8368766,10.4227066 59.4924984,11.5040314 57.1068965,13.3642517 C56.7926212,13.6093194 54.5743919,13.9964483 51.6009388,11.7271309 C51.2707692,13.1411522 56.2488408,15.0167502 55.6751981,15.1502682 C55.550933,15.684096 54.5002182,16.060729 52.9772476,15.8835187 C50.9846703,15.6516319 48.3488523,14.7716825 47.5632847,15.0758203 C46.3319377,15.5515401 46.1616185,17.4088667 46.0963932,19.2333279 L46.0804919,19.7290307 C46.0559385,20.5503015 46.0351434,21.3382141 45.9283309,21.9599291 C45.9283309,21.9599291 42.3027266,22.4195532 39.2201802,20.765346 C39.2201802,20.765346 40.6706628,18.3759356 40.3075003,17.0895741 C39.9453011,15.8024803 38.7667087,13.781892 39.0395622,12.2192191 C39.0395622,12.2192191 38.3132372,12.7703774 38.94829,14.9767193 C39.5821386,17.1811084 39.0395622,20.765346 35.1411043,21.6833736 C35.1411043,21.6833736 34.4157426,20.6728354 34.4157426,19.4789845 C34.4157426,19.4789845 32.4207571,18.2844013 31.6963587,17.1811084 L32.1488669,14.791698 C32.1488669,14.791698 32.6023384,16.0787918 33.5090405,16.813995 C33.5090405,16.813995 31.7009344,10.9643454 32.0631336,8.57493501 C35.7959046,-1.31076528 40.4919714,0.519919957 40.4919714,0.519919957 C40.4919714,0.519919957 44.3451544,-1.67690233 50.3657528,2.96083361 Z"/>
    <path fill="#F4443D" fill-rule="nonzero" d="M61.3370483 13.0024029C62.8542906 15.4017591 64 18.6328561 64 22.9192715 64 26.4945008 62.8559071 30.4726111 60.5995684 34.7429596 58.6673895 38.3996078 55.9632489 42.2061131 52.5620144 46.0562502 46.5940592 52.8121164 39.9726414 58.025017 35.8400364 60.3879871L33.41536 58.4691628 34.2999488 56.5601196C42.5096036 51.6730586 59.9683493 35.4159868 59.9683493 22.8950707 59.9683493 20.0607684 59.3264208 17.732105 58.2812811 15.8481663L61.3370483 13.0024029zM21.5480634 5.01315381C24.0620669 5.01315381 26.6614186 5.79281076 29.2747997 7.33053825L30.4354982 13.2685238C28.4484781 11.4946627 25.1019747 9.10109131 21.5155974 9.10109131 16.0126662 9.10109131 7.82566649 12.7747141 7.82566649 22.8951388 7.82566649 27.3891469 10.0758168 32.3649474 13.3404719 37.1236388L10.7953485 40.512318C9.39617862 38.5591906 8.19251771 36.6312295 7.19471495 34.7429596 4.93817561 30.4728829 3.79401576 26.4948406 3.79401576 22.9192715 3.79401576 15.55378 7.17678413 11.3043639 10.0145361 9.03645908 13.1668132 6.51722937 17.4784378 5.01315381 21.5480634 5.01315381zM76.132 29L76.132 23.87 77.518 23.87C78.13 23.87 78.688 23.792 79.192 23.636 79.696 23.48 80.125 23.246 80.479 22.934 80.833 22.622 81.109 22.22 81.307 21.728 81.505 21.236 81.604 20.66 81.604 20 81.604 19.52 81.544 19.049 81.424 18.587 81.304 18.125 81.106 17.714 80.83 17.354 80.554 16.994 80.191 16.703 79.741 16.481 79.291 16.259 78.736 16.148 78.076 16.148L73.54 16.148 73.54 29 76.132 29zM77.284 21.962L76.132 21.962 76.132 18.056 77.212 18.056C77.86 18.056 78.322 18.224 78.598 18.56 78.874 18.896 79.012 19.388 79.012 20.036 79.012 20.696 78.853 21.182 78.535 21.494 78.217 21.806 77.8 21.962 77.284 21.962zM85.96 29.198C86.488 29.198 86.971 29.144 87.409 29.036 87.847 28.928 88.225 28.748 88.543 28.496 88.861 28.244 89.11 27.929 89.29 27.551 89.47 27.173 89.56 26.726 89.56 26.21 89.56 25.478 89.398 24.899 89.074 24.473 88.75 24.047 88.198 23.702 87.418 23.438L85.924 22.934C85.504 22.802 85.219 22.64 85.069 22.448 84.919 22.256 84.844 22.04 84.844 21.8 84.844 21.452 84.961 21.191 85.195 21.017 85.429 20.843 85.702 20.756 86.014 20.756 86.422 20.756 86.707 20.873 86.869 21.107 87.031 21.341 87.112 21.71 87.112 22.214L89.344 22.214 89.344 21.818C89.344 20.942 89.074 20.264 88.534 19.784 87.994 19.304 87.16 19.064 86.032 19.064 85.396 19.064 84.853 19.142 84.403 19.298 83.953 19.454 83.584 19.664 83.296 19.928 83.008 20.192 82.798 20.501 82.666 20.855 82.534 21.209 82.468 21.584 82.468 21.98 82.468 22.664 82.642 23.225 82.99 23.663 83.338 24.101 83.854 24.44 84.538 24.68L86.284 25.31C86.524 25.406 86.734 25.535 86.914 25.697 87.094 25.859 87.184 26.096 87.184 26.408 87.184 26.792 87.07 27.08 86.842 27.272 86.614 27.464 86.308 27.56 85.924 27.56 85.504 27.56 85.183 27.431 84.961 27.173 84.739 26.915 84.628 26.576 84.628 26.156L84.628 25.832 82.396 25.832 82.396 26.174C82.396 26.642 82.45 27.065 82.558 27.443 82.666 27.821 82.855 28.142 83.125 28.406 83.395 28.67 83.761 28.868 84.223 29 84.685 29.132 85.264 29.198 85.96 29.198zM91.81 32.114C92.386 32.114 92.863 32.072 93.241 31.988 93.619 31.904 93.943 31.727 94.213 31.457 94.483 31.187 94.717 30.803 94.915 30.305 95.113 29.807 95.32 29.156 95.536 28.352L97.876 19.316 95.392 19.316 94.132 26.012 94.096 26.012 92.656 19.316 90.064 19.316 92.782 29C92.746 29.396 92.629 29.714 92.431 29.954 92.233 30.194 91.906 30.314 91.45 30.314 91.234 30.314 91.018 30.296 90.802 30.26L90.802 32.114 91.81 32.114zM102.142 29.198C103.462 29.198 104.407 28.865 104.977 28.199 105.547 27.533 105.832 26.564 105.832 25.292L103.456 25.292C103.456 26.084 103.36 26.66 103.168 27.02 102.976 27.38 102.67 27.56 102.25 27.56 101.974 27.56 101.749 27.497 101.575 27.371 101.401 27.245 101.266 27.044 101.17 26.768 101.074 26.492 101.008 26.141 100.972 25.715 100.936 25.289 100.918 24.776 100.918 24.176 100.918 23.612 100.936 23.123 100.972 22.709 101.008 22.295 101.074 21.953 101.17 21.683 101.266 21.413 101.41 21.209 101.602 21.071 101.794 20.933 102.04 20.864 102.34 20.864 102.58 20.864 102.772 20.921 102.916 21.035 103.06 21.149 103.171 21.299 103.249 21.485 103.327 21.671 103.381 21.878 103.411 22.106 103.441 22.334 103.456 22.568 103.456 22.808L105.832 22.808C105.832 21.656 105.541 20.744 104.959 20.072 104.377 19.4 103.51 19.064 102.358 19.064 101.782 19.064 101.254 19.142 100.774 19.298 100.294 19.454 99.88 19.727 99.532 20.117 99.184 20.507 98.914 21.029 98.722 21.683 98.53 22.337 98.434 23.162 98.434 24.158 98.434 25.13 98.512 25.943 98.668 26.597 98.824 27.251 99.055 27.773 99.361 28.163 99.667 28.553 100.051 28.823 100.513 28.973 100.975 29.123 101.518 29.198 102.142 29.198zM109.612 29L109.612 22.574C109.612 21.506 110.05 20.972 110.926 20.972 111.298 20.972 111.568 21.071 111.736 21.269 111.904 21.467 111.988 21.818 111.988 22.322L111.988 29 114.472 29 114.472 21.818C114.472 20.846 114.259 20.144 113.833 19.712 113.407 19.28 112.798 19.064 112.006 19.064 110.914 19.064 110.128 19.478 109.648 20.306L109.612 20.306 109.612 16.148 107.128 16.148 107.128 29 109.612 29zM118.702 18.128L118.702 16.004 116.218 16.004 116.218 18.128 118.702 18.128zM118.702 29L118.702 19.316 116.218 19.316 116.218 29 118.702 29zM122.464 29.198C123.064 29.198 123.553 29.123 123.931 28.973 124.309 28.823 124.642 28.496 124.93 27.992L124.966 27.992C125.002 28.16 125.041 28.331 125.083 28.505 125.125 28.679 125.188 28.844 125.272 29L127.648 29C127.528 28.712 127.447 28.442 127.405 28.19 127.363 27.938 127.342 27.584 127.342 27.128L127.342 22.034C127.342 21.602 127.297 21.203 127.207 20.837 127.117 20.471 126.946 20.156 126.694 19.892 126.442 19.628 126.088 19.424 125.632 19.28 125.176 19.136 124.576 19.064 123.832 19.064 123.364 19.064 122.923 19.115 122.509 19.217 122.095 19.319 121.735 19.487 121.429 19.721 121.123 19.955 120.88 20.261 120.7 20.639 120.52 21.017 120.43 21.488 120.43 22.052L120.43 22.286 122.662 22.286 122.662 22.016C122.662 21.632 122.758 21.326 122.95 21.098 123.142 20.87 123.43 20.756 123.814 20.756 124.234 20.756 124.531 20.861 124.705 21.071 124.879 21.281 124.966 21.572 124.966 21.944 124.966 22.268 124.894 22.514 124.75 22.682 124.606 22.85 124.348 22.982 123.976 23.078L122.572 23.456C122.14 23.576 121.771 23.714 121.465 23.87 121.159 24.026 120.907 24.221 120.709 24.455 120.511 24.689 120.364 24.971 120.268 25.301 120.172 25.631 120.124 26.024 120.124 26.48 120.124 26.804 120.166 27.131 120.25 27.461 120.334 27.791 120.466 28.088 120.646 28.352 120.826 28.616 121.066 28.823 121.366 28.973 121.666 29.123 122.032 29.198 122.464 29.198zM123.436 27.56C123.1 27.56 122.86 27.428 122.716 27.164 122.572 26.9 122.5 26.582 122.5 26.21 122.5 25.778 122.608 25.436 122.824 25.184 123.04 24.932 123.4 24.752 123.904 24.644 124.06 24.608 124.234 24.551 124.426 24.473 124.618 24.395 124.798 24.29 124.966 24.158L124.966 26.066C124.966 26.33 124.918 26.558 124.822 26.75 124.726 26.942 124.603 27.098 124.453 27.218 124.303 27.338 124.138 27.425 123.958 27.479 123.778 27.533 123.604 27.56 123.436 27.56zM131.95 29.054C132.238 29.054 132.511 29.045 132.769 29.027 133.027 29.009 133.294 29 133.57 29L133.57 27.272C133.486 27.284 133.396 27.293 133.3 27.299 133.204 27.305 133.108 27.308 133.012 27.308 132.652 27.308 132.415 27.227 132.301 27.065 132.187 26.903 132.13 26.63 132.13 26.246L132.13 21.008 133.57 21.008 133.57 19.316 132.13 19.316 132.13 16.544 129.646 16.544 129.646 19.316 128.386 19.316 128.386 21.008 129.646 21.008 129.646 26.552C129.646 27.044 129.676 27.452 129.736 27.776 129.796 28.1 129.907 28.361 130.069 28.559 130.231 28.757 130.465 28.889 130.771 28.955 131.077 29.021 131.47 29.054 131.95 29.054zM136.918 29L136.918 23.186C136.918 22.862 136.972 22.589 137.08 22.367 137.188 22.145 137.332 21.965 137.512 21.827 137.692 21.689 137.89 21.59 138.106 21.53 138.322 21.47 138.538 21.44 138.754 21.44 138.886 21.44 139.015 21.443 139.141 21.449 139.267 21.455 139.396 21.464 139.528 21.476L139.528 19.1C139.456 19.088 139.381 19.079 139.303 19.073 139.225 19.067 139.15 19.064 139.078 19.064 138.562 19.064 138.124 19.205 137.764 19.487 137.404 19.769 137.098 20.144 136.846 20.612L136.81 20.612 136.81 19.316 134.434 19.316 134.434 29 136.918 29zM143.002 18.128L143.002 16.004 140.518 16.004 140.518 18.128 143.002 18.128zM143.002 29L143.002 19.316 140.518 19.316 140.518 29 143.002 29zM148.096 29.198C149.416 29.198 150.361 28.865 150.931 28.199 151.501 27.533 151.786 26.564 151.786 25.292L149.41 25.292C149.41 26.084 149.314 26.66 149.122 27.02 148.93 27.38 148.624 27.56 148.204 27.56 147.928 27.56 147.703 27.497 147.529 27.371 147.355 27.245 147.22 27.044 147.124 26.768 147.028 26.492 146.962 26.141 146.926 25.715 146.89 25.289 146.872 24.776 146.872 24.176 146.872 23.612 146.89 23.123 146.926 22.709 146.962 22.295 147.028 21.953 147.124 21.683 147.22 21.413 147.364 21.209 147.556 21.071 147.748 20.933 147.994 20.864 148.294 20.864 148.534 20.864 148.726 20.921 148.87 21.035 149.014 21.149 149.125 21.299 149.203 21.485 149.281 21.671 149.335 21.878 149.365 22.106 149.395 22.334 149.41 22.568 149.41 22.808L151.786 22.808C151.786 21.656 151.495 20.744 150.913 20.072 150.331 19.4 149.464 19.064 148.312 19.064 147.736 19.064 147.208 19.142 146.728 19.298 146.248 19.454 145.834 19.727 145.486 20.117 145.138 20.507 144.868 21.029 144.676 21.683 144.484 22.337 144.388 23.162 144.388 24.158 144.388 25.13 144.466 25.943 144.622 26.597 144.778 27.251 145.009 27.773 145.315 28.163 145.621 28.553 146.005 28.823 146.467 28.973 146.929 29.123 147.472 29.198 148.096 29.198zM161.056 29.198C162.46 29.198 163.555 28.889 164.341 28.271 165.127 27.653 165.52 26.666 165.52 25.31 165.52 24.914 165.484 24.554 165.412 24.23 165.34 23.906 165.211 23.609 165.025 23.339 164.839 23.069 164.59 22.817 164.278 22.583 163.966 22.349 163.564 22.124 163.072 21.908L161.074 21.044C160.522 20.816 160.162 20.567 159.994 20.297 159.826 20.027 159.742 19.694 159.742 19.298 159.742 19.106 159.763 18.92 159.805 18.74 159.847 18.56 159.925 18.401 160.039 18.263 160.153 18.125 160.306 18.014 160.498 17.93 160.69 17.846 160.93 17.804 161.218 17.804 161.722 17.804 162.082 17.969 162.298 18.299 162.514 18.629 162.622 19.1 162.622 19.712L165.106 19.712 165.106 19.352C165.106 18.74 165.007 18.215 164.809 17.777 164.611 17.339 164.335 16.979 163.981 16.697 163.627 16.415 163.207 16.211 162.721 16.085 162.235 15.959 161.704 15.896 161.128 15.896 159.892 15.896 158.92 16.208 158.212 16.832 157.504 17.456 157.15 18.404 157.15 19.676 157.15 20.204 157.216 20.669 157.348 21.071 157.48 21.473 157.687 21.827 157.969 22.133 158.251 22.439 158.602 22.706 159.022 22.934 159.442 23.162 159.94 23.372 160.516 23.564 160.948 23.708 161.311 23.849 161.605 23.987 161.899 24.125 162.136 24.278 162.316 24.446 162.496 24.614 162.625 24.803 162.703 25.013 162.781 25.223 162.82 25.472 162.82 25.76 162.82 26.3 162.661 26.699 162.343 26.957 162.025 27.215 161.668 27.344 161.272 27.344 160.936 27.344 160.657 27.296 160.435 27.2 160.213 27.104 160.036 26.972 159.904 26.804 159.772 26.636 159.682 26.429 159.634 26.183 159.586 25.937 159.562 25.664 159.562 25.364L159.562 24.986 156.97 24.986 156.97 25.508C156.97 26.696 157.285 27.608 157.915 28.244 158.545 28.88 159.592 29.198 161.056 29.198zM170.128 29.198C171.316 29.198 172.186 28.904 172.738 28.316 173.29 27.728 173.59 26.87 173.638 25.742L171.406 25.742C171.334 26.354 171.202 26.81 171.01 27.11 170.818 27.41 170.512 27.56 170.092 27.56 169.864 27.56 169.672 27.497 169.516 27.371 169.36 27.245 169.234 27.077 169.138 26.867 169.042 26.657 168.973 26.417 168.931 26.147 168.889 25.877 168.868 25.598 168.868 25.31L168.868 24.536 173.782 24.536 173.782 23.978C173.782 23.234 173.734 22.559 173.638 21.953 173.542 21.347 173.362 20.831 173.098 20.405 172.834 19.979 172.471 19.649 172.009 19.415 171.547 19.181 170.956 19.064 170.236 19.064 169.396 19.064 168.724 19.202 168.22 19.478 167.716 19.754 167.329 20.126 167.059 20.594 166.789 21.062 166.609 21.596 166.519 22.196 166.429 22.796 166.384 23.42 166.384 24.068 166.384 24.68 166.411 25.292 166.465 25.904 166.519 26.516 166.666 27.068 166.906 27.56 167.146 28.052 167.518 28.448 168.022 28.748 168.526 29.048 169.228 29.198 170.128 29.198zM171.406 23.06L168.868 23.06 168.868 22.682C168.868 22.454 168.889 22.226 168.931 21.998 168.973 21.77 169.042 21.563 169.138 21.377 169.234 21.191 169.363 21.041 169.525 20.927 169.687 20.813 169.894 20.756 170.146 20.756 170.398 20.756 170.605 20.807 170.767 20.909 170.929 21.011 171.055 21.161 171.145 21.359 171.235 21.557 171.298 21.797 171.334 22.079 171.37 22.361 171.394 22.688 171.406 23.06zM177.562 29L177.562 23.186C177.562 22.862 177.616 22.589 177.724 22.367 177.832 22.145 177.976 21.965 178.156 21.827 178.336 21.689 178.534 21.59 178.75 21.53 178.966 21.47 179.182 21.44 179.398 21.44 179.53 21.44 179.659 21.443 179.785 21.449 179.911 21.455 180.04 21.464 180.172 21.476L180.172 19.1C180.1 19.088 180.025 19.079 179.947 19.073 179.869 19.067 179.794 19.064 179.722 19.064 179.206 19.064 178.768 19.205 178.408 19.487 178.048 19.769 177.742 20.144 177.49 20.612L177.454 20.612 177.454 19.316 175.078 19.316 175.078 29 177.562 29zM186.04 29L188.47 19.316 185.986 19.316 184.672 26.246 184.636 26.246 183.25 19.316 180.658 19.316 183.16 29 186.04 29zM191.962 18.128L191.962 16.004 189.478 16.004 189.478 18.128 191.962 18.128zM191.962 29L191.962 19.316 189.478 19.316 189.478 29 191.962 29zM197.056 29.198C198.376 29.198 199.321 28.865 199.891 28.199 200.461 27.533 200.746 26.564 200.746 25.292L198.37 25.292C198.37 26.084 198.274 26.66 198.082 27.02 197.89 27.38 197.584 27.56 197.164 27.56 196.888 27.56 196.663 27.497 196.489 27.371 196.315 27.245 196.18 27.044 196.084 26.768 195.988 26.492 195.922 26.141 195.886 25.715 195.85 25.289 195.832 24.776 195.832 24.176 195.832 23.612 195.85 23.123 195.886 22.709 195.922 22.295 195.988 21.953 196.084 21.683 196.18 21.413 196.324 21.209 196.516 21.071 196.708 20.933 196.954 20.864 197.254 20.864 197.494 20.864 197.686 20.921 197.83 21.035 197.974 21.149 198.085 21.299 198.163 21.485 198.241 21.671 198.295 21.878 198.325 22.106 198.355 22.334 198.37 22.568 198.37 22.808L200.746 22.808C200.746 21.656 200.455 20.744 199.873 20.072 199.291 19.4 198.424 19.064 197.272 19.064 196.696 19.064 196.168 19.142 195.688 19.298 195.208 19.454 194.794 19.727 194.446 20.117 194.098 20.507 193.828 21.029 193.636 21.683 193.444 22.337 193.348 23.162 193.348 24.158 193.348 25.13 193.426 25.943 193.582 26.597 193.738 27.251 193.969 27.773 194.275 28.163 194.581 28.553 194.965 28.823 195.427 28.973 195.889 29.123 196.432 29.198 197.056 29.198zM205.426 29.198C206.614 29.198 207.484 28.904 208.036 28.316 208.588 27.728 208.888 26.87 208.936 25.742L206.704 25.742C206.632 26.354 206.5 26.81 206.308 27.11 206.116 27.41 205.81 27.56 205.39 27.56 205.162 27.56 204.97 27.497 204.814 27.371 204.658 27.245 204.532 27.077 204.436 26.867 204.34 26.657 204.271 26.417 204.229 26.147 204.187 25.877 204.166 25.598 204.166 25.31L204.166 24.536 209.08 24.536 209.08 23.978C209.08 23.234 209.032 22.559 208.936 21.953 208.84 21.347 208.66 20.831 208.396 20.405 208.132 19.979 207.769 19.649 207.307 19.415 206.845 19.181 206.254 19.064 205.534 19.064 204.694 19.064 204.022 19.202 203.518 19.478 203.014 19.754 202.627 20.126 202.357 20.594 202.087 21.062 201.907 21.596 201.817 22.196 201.727 22.796 201.682 23.42 201.682 24.068 201.682 24.68 201.709 25.292 201.763 25.904 201.817 26.516 201.964 27.068 202.204 27.56 202.444 28.052 202.816 28.448 203.32 28.748 203.824 29.048 204.526 29.198 205.426 29.198zM206.704 23.06L204.166 23.06 204.166 22.682C204.166 22.454 204.187 22.226 204.229 21.998 204.271 21.77 204.34 21.563 204.436 21.377 204.532 21.191 204.661 21.041 204.823 20.927 204.985 20.813 205.192 20.756 205.444 20.756 205.696 20.756 205.903 20.807 206.065 20.909 206.227 21.011 206.353 21.161 206.443 21.359 206.533 21.557 206.596 21.797 206.632 22.079 206.668 22.361 206.692 22.688 206.704 23.06zM69.112 49C69.976 49 70.69 48.868 71.254 48.604 71.818 48.34 72.268 47.938 72.604 47.398 72.94 46.858 73.177 46.171 73.315 45.337 73.453 44.503 73.522 43.522 73.522 42.394 73.522 41.446 73.468 40.588 73.36 39.82 73.252 39.052 73.045 38.395 72.739 37.849 72.433 37.303 72.004 36.883 71.452 36.589 70.9 36.295 70.174 36.148 69.274 36.148L65.026 36.148 65.026 49 69.112 49zM68.77 47.092L67.618 47.092 67.618 38.056 68.716 38.056C69.208 38.056 69.601 38.149 69.895 38.335 70.189 38.521 70.411 38.797 70.561 39.163 70.711 39.529 70.81 39.988 70.858 40.54 70.906 41.092 70.93 41.734 70.93 42.466 70.93 43.342 70.903 44.074 70.849 44.662 70.795 45.25 70.687 45.724 70.525 46.084 70.363 46.444 70.144 46.702 69.868 46.858 69.592 47.014 69.226 47.092 68.77 47.092zM78.652 49.198C79.36 49.198 79.957 49.096 80.443 48.892 80.929 48.688 81.322 48.373 81.622 47.947 81.922 47.521 82.138 46.99 82.27 46.354 82.402 45.718 82.468 44.986 82.468 44.158 82.468 43.306 82.408 42.562 82.288 41.926 82.168 41.29 81.964 40.756 81.676 40.324 81.388 39.892 80.998 39.571 80.506 39.361 80.014 39.151 79.396 39.052 78.652 39.064 77.944 39.064 77.347 39.175 76.861 39.397 76.375 39.619 75.982 39.943 75.682 40.369 75.382 40.795 75.166 41.326 75.034 41.962 74.902 42.598 74.836 43.33 74.836 44.158 74.836 44.998 74.896 45.739 75.016 46.381 75.136 47.023 75.34 47.557 75.628 47.983 75.916 48.409 76.306 48.721 76.798 48.919 77.29 49.117 77.908 49.21 78.652 49.198zM78.652 47.56C78.352 47.56 78.112 47.476 77.932 47.308 77.752 47.14 77.617 46.906 77.527 46.606 77.437 46.306 77.38 45.946 77.356 45.526 77.332 45.106 77.32 44.65 77.32 44.158 77.32 43.666 77.332 43.21 77.356 42.79 77.38 42.37 77.437 42.01 77.527 41.71 77.617 41.41 77.752 41.176 77.932 41.008 78.112 40.84 78.352 40.756 78.652 40.756 79.156 40.756 79.504 41.02 79.696 41.548 79.888 42.076 79.984 42.946 79.984 44.158 79.984 45.37 79.888 46.24 79.696 46.768 79.504 47.296 79.156 47.56 78.652 47.56zM87.022 52.258C88.474 52.258 89.509 51.946 90.127 51.322 90.745 50.698 91.054 49.762 91.054 48.514L91.054 39.316 88.678 39.316 88.678 40.396 88.642 40.396C88.402 39.892 88.096 39.544 87.724 39.352 87.352 39.16 86.992 39.064 86.644 39.064 85.972 39.064 85.435 39.214 85.033 39.514 84.631 39.814 84.325 40.201 84.115 40.675 83.905 41.149 83.767 41.68 83.701 42.268 83.635 42.856 83.602 43.432 83.602 43.996 83.602 45.76 83.851 47.017 84.349 47.767 84.847 48.517 85.588 48.892 86.572 48.892 86.968 48.892 87.349 48.784 87.715 48.568 88.081 48.352 88.39 48.064 88.642 47.704L88.678 47.704 88.678 48.982C88.678 49.462 88.576 49.864 88.372 50.188 88.168 50.512 87.814 50.674 87.31 50.674 87.154 50.674 87.007 50.65 86.869 50.602 86.731 50.554 86.602 50.488 86.482 50.404 86.23 50.224 86.104 49.978 86.104 49.666L83.728 49.666C83.728 50.494 84.013 51.133 84.583 51.583 85.153 52.033 85.966 52.258 87.022 52.258zM87.328 46.984C87.064 46.984 86.851 46.915 86.689 46.777 86.527 46.639 86.401 46.453 86.311 46.219 86.221 45.985 86.161 45.718 86.131 45.418 86.101 45.118 86.086 44.8 86.086 44.464 86.086 43.816 86.101 43.267 86.131 42.817 86.161 42.367 86.224 42.007 86.32 41.737 86.416 41.467 86.548 41.272 86.716 41.152 86.884 41.032 87.106 40.972 87.382 40.972 87.874 40.972 88.213 41.218 88.399 41.71 88.585 42.202 88.678 43.036 88.678 44.212 88.678 44.62 88.657 44.995 88.615 45.337 88.573 45.679 88.501 45.97 88.399 46.21 88.297 46.45 88.159 46.639 87.985 46.777 87.811 46.915 87.592 46.984 87.328 46.984zM98.326 49L98.92 46.282 102.34 46.282 102.934 49 105.634 49 102.232 36.148 99.028 36.148 95.626 49 98.326 49zM101.89 44.158L99.37 44.158 100.612 38.38 100.648 38.38 101.89 44.158zM109.612 49.198C110.14 49.198 110.623 49.144 111.061 49.036 111.499 48.928 111.877 48.748 112.195 48.496 112.513 48.244 112.762 47.929 112.942 47.551 113.122 47.173 113.212 46.726 113.212 46.21 113.212 45.478 113.05 44.899 112.726 44.473 112.402 44.047 111.85 43.702 111.07 43.438L109.576 42.934C109.156 42.802 108.871 42.64 108.721 42.448 108.571 42.256 108.496 42.04 108.496 41.8 108.496 41.452 108.613 41.191 108.847 41.017 109.081 40.843 109.354 40.756 109.666 40.756 110.074 40.756 110.359 40.873 110.521 41.107 110.683 41.341 110.764 41.71 110.764 42.214L112.996 42.214 112.996 41.818C112.996 40.942 112.726 40.264 112.186 39.784 111.646 39.304 110.812 39.064 109.684 39.064 109.048 39.064 108.505 39.142 108.055 39.298 107.605 39.454 107.236 39.664 106.948 39.928 106.66 40.192 106.45 40.501 106.318 40.855 106.186 41.209 106.12 41.584 106.12 41.98 106.12 42.664 106.294 43.225 106.642 43.663 106.99 44.101 107.506 44.44 108.19 44.68L109.936 45.31C110.176 45.406 110.386 45.535 110.566 45.697 110.746 45.859 110.836 46.096 110.836 46.408 110.836 46.792 110.722 47.08 110.494 47.272 110.266 47.464 109.96 47.56 109.576 47.56 109.156 47.56 108.835 47.431 108.613 47.173 108.391 46.915 108.28 46.576 108.28 46.156L108.28 45.832 106.048 45.832 106.048 46.174C106.048 46.642 106.102 47.065 106.21 47.443 106.318 47.821 106.507 48.142 106.777 48.406 107.047 48.67 107.413 48.868 107.875 49 108.337 49.132 108.916 49.198 109.612 49.198zM117.604 49.198C118.132 49.198 118.615 49.144 119.053 49.036 119.491 48.928 119.869 48.748 120.187 48.496 120.505 48.244 120.754 47.929 120.934 47.551 121.114 47.173 121.204 46.726 121.204 46.21 121.204 45.478 121.042 44.899 120.718 44.473 120.394 44.047 119.842 43.702 119.062 43.438L117.568 42.934C117.148 42.802 116.863 42.64 116.713 42.448 116.563 42.256 116.488 42.04 116.488 41.8 116.488 41.452 116.605 41.191 116.839 41.017 117.073 40.843 117.346 40.756 117.658 40.756 118.066 40.756 118.351 40.873 118.513 41.107 118.675 41.341 118.756 41.71 118.756 42.214L120.988 42.214 120.988 41.818C120.988 40.942 120.718 40.264 120.178 39.784 119.638 39.304 118.804 39.064 117.676 39.064 117.04 39.064 116.497 39.142 116.047 39.298 115.597 39.454 115.228 39.664 114.94 39.928 114.652 40.192 114.442 40.501 114.31 40.855 114.178 41.209 114.112 41.584 114.112 41.98 114.112 42.664 114.286 43.225 114.634 43.663 114.982 44.101 115.498 44.44 116.182 44.68L117.928 45.31C118.168 45.406 118.378 45.535 118.558 45.697 118.738 45.859 118.828 46.096 118.828 46.408 118.828 46.792 118.714 47.08 118.486 47.272 118.258 47.464 117.952 47.56 117.568 47.56 117.148 47.56 116.827 47.431 116.605 47.173 116.383 46.915 116.272 46.576 116.272 46.156L116.272 45.832 114.04 45.832 114.04 46.174C114.04 46.642 114.094 47.065 114.202 47.443 114.31 47.821 114.499 48.142 114.769 48.406 115.039 48.67 115.405 48.868 115.867 49 116.329 49.132 116.908 49.198 117.604 49.198zM125.938 49.198C126.646 49.198 127.243 49.096 127.729 48.892 128.215 48.688 128.608 48.373 128.908 47.947 129.208 47.521 129.424 46.99 129.556 46.354 129.688 45.718 129.754 44.986 129.754 44.158 129.754 43.306 129.694 42.562 129.574 41.926 129.454 41.29 129.25 40.756 128.962 40.324 128.674 39.892 128.284 39.571 127.792 39.361 127.3 39.151 126.682 39.052 125.938 39.064 125.23 39.064 124.633 39.175 124.147 39.397 123.661 39.619 123.268 39.943 122.968 40.369 122.668 40.795 122.452 41.326 122.32 41.962 122.188 42.598 122.122 43.33 122.122 44.158 122.122 44.998 122.182 45.739 122.302 46.381 122.422 47.023 122.626 47.557 122.914 47.983 123.202 48.409 123.592 48.721 124.084 48.919 124.576 49.117 125.194 49.21 125.938 49.198zM125.938 47.56C125.638 47.56 125.398 47.476 125.218 47.308 125.038 47.14 124.903 46.906 124.813 46.606 124.723 46.306 124.666 45.946 124.642 45.526 124.618 45.106 124.606 44.65 124.606 44.158 124.606 43.666 124.618 43.21 124.642 42.79 124.666 42.37 124.723 42.01 124.813 41.71 124.903 41.41 125.038 41.176 125.218 41.008 125.398 40.84 125.638 40.756 125.938 40.756 126.442 40.756 126.79 41.02 126.982 41.548 127.174 42.076 127.27 42.946 127.27 44.158 127.27 45.37 127.174 46.24 126.982 46.768 126.79 47.296 126.442 47.56 125.938 47.56zM134.434 49.198C135.754 49.198 136.699 48.865 137.269 48.199 137.839 47.533 138.124 46.564 138.124 45.292L135.748 45.292C135.748 46.084 135.652 46.66 135.46 47.02 135.268 47.38 134.962 47.56 134.542 47.56 134.266 47.56 134.041 47.497 133.867 47.371 133.693 47.245 133.558 47.044 133.462 46.768 133.366 46.492 133.3 46.141 133.264 45.715 133.228 45.289 133.21 44.776 133.21 44.176 133.21 43.612 133.228 43.123 133.264 42.709 133.3 42.295 133.366 41.953 133.462 41.683 133.558 41.413 133.702 41.209 133.894 41.071 134.086 40.933 134.332 40.864 134.632 40.864 134.872 40.864 135.064 40.921 135.208 41.035 135.352 41.149 135.463 41.299 135.541 41.485 135.619 41.671 135.673 41.878 135.703 42.106 135.733 42.334 135.748 42.568 135.748 42.808L138.124 42.808C138.124 41.656 137.833 40.744 137.251 40.072 136.669 39.4 135.802 39.064 134.65 39.064 134.074 39.064 133.546 39.142 133.066 39.298 132.586 39.454 132.172 39.727 131.824 40.117 131.476 40.507 131.206 41.029 131.014 41.683 130.822 42.337 130.726 43.162 130.726 44.158 130.726 45.13 130.804 45.943 130.96 46.597 131.116 47.251 131.347 47.773 131.653 48.163 131.959 48.553 132.343 48.823 132.805 48.973 133.267 49.123 133.81 49.198 134.434 49.198zM141.994 38.128L141.994 36.004 139.51 36.004 139.51 38.128 141.994 38.128zM141.994 49L141.994 39.316 139.51 39.316 139.51 49 141.994 49zM145.756 49.198C146.356 49.198 146.845 49.123 147.223 48.973 147.601 48.823 147.934 48.496 148.222 47.992L148.258 47.992C148.294 48.16 148.333 48.331 148.375 48.505 148.417 48.679 148.48 48.844 148.564 49L150.94 49C150.82 48.712 150.739 48.442 150.697 48.19 150.655 47.938 150.634 47.584 150.634 47.128L150.634 42.034C150.634 41.602 150.589 41.203 150.499 40.837 150.409 40.471 150.238 40.156 149.986 39.892 149.734 39.628 149.38 39.424 148.924 39.28 148.468 39.136 147.868 39.064 147.124 39.064 146.656 39.064 146.215 39.115 145.801 39.217 145.387 39.319 145.027 39.487 144.721 39.721 144.415 39.955 144.172 40.261 143.992 40.639 143.812 41.017 143.722 41.488 143.722 42.052L143.722 42.286 145.954 42.286 145.954 42.016C145.954 41.632 146.05 41.326 146.242 41.098 146.434 40.87 146.722 40.756 147.106 40.756 147.526 40.756 147.823 40.861 147.997 41.071 148.171 41.281 148.258 41.572 148.258 41.944 148.258 42.268 148.186 42.514 148.042 42.682 147.898 42.85 147.64 42.982 147.268 43.078L145.864 43.456C145.432 43.576 145.063 43.714 144.757 43.87 144.451 44.026 144.199 44.221 144.001 44.455 143.803 44.689 143.656 44.971 143.56 45.301 143.464 45.631 143.416 46.024 143.416 46.48 143.416 46.804 143.458 47.131 143.542 47.461 143.626 47.791 143.758 48.088 143.938 48.352 144.118 48.616 144.358 48.823 144.658 48.973 144.958 49.123 145.324 49.198 145.756 49.198zM146.728 47.56C146.392 47.56 146.152 47.428 146.008 47.164 145.864 46.9 145.792 46.582 145.792 46.21 145.792 45.778 145.9 45.436 146.116 45.184 146.332 44.932 146.692 44.752 147.196 44.644 147.352 44.608 147.526 44.551 147.718 44.473 147.91 44.395 148.09 44.29 148.258 44.158L148.258 46.066C148.258 46.33 148.21 46.558 148.114 46.75 148.018 46.942 147.895 47.098 147.745 47.218 147.595 47.338 147.43 47.425 147.25 47.479 147.07 47.533 146.896 47.56 146.728 47.56zM155.242 49.054C155.53 49.054 155.803 49.045 156.061 49.027 156.319 49.009 156.586 49 156.862 49L156.862 47.272C156.778 47.284 156.688 47.293 156.592 47.299 156.496 47.305 156.4 47.308 156.304 47.308 155.944 47.308 155.707 47.227 155.593 47.065 155.479 46.903 155.422 46.63 155.422 46.246L155.422 41.008 156.862 41.008 156.862 39.316 155.422 39.316 155.422 36.544 152.938 36.544 152.938 39.316 151.678 39.316 151.678 41.008 152.938 41.008 152.938 46.552C152.938 47.044 152.968 47.452 153.028 47.776 153.088 48.1 153.199 48.361 153.361 48.559 153.523 48.757 153.757 48.889 154.063 48.955 154.369 49.021 154.762 49.054 155.242 49.054zM160.3 38.128L160.3 36.004 157.816 36.004 157.816 38.128 160.3 38.128zM160.3 49L160.3 39.316 157.816 39.316 157.816 49 160.3 49zM165.538 49.198C166.246 49.198 166.843 49.096 167.329 48.892 167.815 48.688 168.208 48.373 168.508 47.947 168.808 47.521 169.024 46.99 169.156 46.354 169.288 45.718 169.354 44.986 169.354 44.158 169.354 43.306 169.294 42.562 169.174 41.926 169.054 41.29 168.85 40.756 168.562 40.324 168.274 39.892 167.884 39.571 167.392 39.361 166.9 39.151 166.282 39.052 165.538 39.064 164.83 39.064 164.233 39.175 163.747 39.397 163.261 39.619 162.868 39.943 162.568 40.369 162.268 40.795 162.052 41.326 161.92 41.962 161.788 42.598 161.722 43.33 161.722 44.158 161.722 44.998 161.782 45.739 161.902 46.381 162.022 47.023 162.226 47.557 162.514 47.983 162.802 48.409 163.192 48.721 163.684 48.919 164.176 49.117 164.794 49.21 165.538 49.198zM165.538 47.56C165.238 47.56 164.998 47.476 164.818 47.308 164.638 47.14 164.503 46.906 164.413 46.606 164.323 46.306 164.266 45.946 164.242 45.526 164.218 45.106 164.206 44.65 164.206 44.158 164.206 43.666 164.218 43.21 164.242 42.79 164.266 42.37 164.323 42.01 164.413 41.71 164.503 41.41 164.638 41.176 164.818 41.008 164.998 40.84 165.238 40.756 165.538 40.756 166.042 40.756 166.39 41.02 166.582 41.548 166.774 42.076 166.87 42.946 166.87 44.158 166.87 45.37 166.774 46.24 166.582 46.768 166.39 47.296 166.042 47.56 165.538 47.56zM173.17 49L173.17 42.574C173.17 41.506 173.608 40.972 174.484 40.972 174.856 40.972 175.126 41.071 175.294 41.269 175.462 41.467 175.546 41.818 175.546 42.322L175.546 49 178.03 49 178.03 41.818C178.03 40.846 177.817 40.144 177.391 39.712 176.965 39.28 176.356 39.064 175.564 39.064 175.024 39.064 174.544 39.175 174.124 39.397 173.704 39.619 173.362 39.97 173.098 40.45L173.062 40.45 173.062 39.316 170.686 39.316 170.686 49 173.17 49z"/>
  </g>
</svg>
